Walk_Norm15
version=1
nRows=22
nColumns=37
inDegrees=yes
endheader
time	ground_force2_vx	ground_force2_vy	ground_force2_vz	ground_force2_px	ground_force2_py	ground_force2_pz	ground_torque2_x	ground_torque2_y	ground_torque2_z	ground_force1_vx	ground_force1_vy	ground_force1_vz	ground_force1_px	ground_force1_py	ground_force1_pz	ground_torque1_x	ground_torque1_y	ground_torque1_z	ground_force4_vx	ground_force4_vy	ground_force4_vz	ground_force4_px	ground_force4_py	ground_force4_pz	ground_torque4_x	ground_torque4_y	ground_torque4_z	ground_force3_vx	ground_force3_vy	ground_force3_vz	ground_force3_px	ground_force3_py	ground_force3_pz	ground_torque3_x	ground_torque3_y	ground_torque3_z
1.850000	11.402447	125.070602	-11.288576	0.272928	0.000008	0.271407	0.002633	-1.776045	0.000872	6.223957	654.075256	93.183006	0.182234	0.000061	-0.232877	-0.000173	0.277237	-0.000059	-0.000000	-0.000000	0.000000	-0.199669	-0.000131	0.305422	0.000000	0.000000	0.000000	-0.000000	-0.000000	0.000000	0.207643	0.000077	1.058390	0.000000	0.000000	0.000000	
1.851000	12.888774	119.758377	-16.596180	0.271018	0.000004	0.269234	0.003098	-2.089498	0.001028	6.135647	661.144714	93.980476	0.182572	0.000061	-0.233268	-0.000068	0.101763	-0.000020	-0.000000	-0.000000	0.000000	-0.199669	-0.000131	0.305422	0.000000	0.000000	0.000000	-0.000000	-0.000000	0.000000	0.207643	0.000077	1.058390	0.000000	0.000000	0.000000	
1.852000	12.826542	114.802406	-12.881525	0.269373	0.000004	0.272733	0.001807	-1.218105	0.000601	6.828483	667.153809	92.732948	0.182456	0.000061	-0.233871	-0.000087	0.153260	-0.000023	-0.000000	-0.000000	0.000000	-0.199669	-0.000131	0.305422	0.000000	0.000000	0.000000	-0.000000	-0.000000	0.000000	0.207643	0.000077	1.058390	0.000000	0.000000	0.000000	
1.853000	11.538226	110.908455	-6.156293	0.266602	-0.000002	0.269263	0.002330	-1.570001	0.000775	7.707255	669.275269	92.905258	0.182194	0.000061	-0.234014	-0.000072	0.126354	-0.000027	-0.000000	-0.000000	0.000000	-0.199669	-0.000131	0.305422	0.000000	0.000000	0.000000	-0.000000	-0.000000	0.000000	0.207643	0.000077	1.058390	0.000000	0.000000	0.000000	
1.854000	12.525617	101.702705	-6.245120	0.272728	0.000006	0.268250	0.002886	-1.945130	0.000958	7.803039	675.991760	95.210464	0.182259	0.000061	-0.234023	-0.000118	0.183704	-0.000038	-0.000000	-0.000000	0.000000	-0.199669	-0.000131	0.305422	0.000000	0.000000	0.000000	-0.000000	-0.000000	0.000000	0.207643	0.000077	1.058390	0.000000	0.000000	0.000000	
1.855000	12.262321	96.744125	-7.213452	0.269749	0.000002	0.268712	0.001246	-0.841548	0.000415	7.430429	681.292725	91.927666	0.182233	0.000060	-0.234732	0.000039	-0.065638	0.000019	-0.000000	-0.000000	0.000000	-0.199669	-0.000131	0.305422	0.000000	0.000000	0.000000	-0.000000	-0.000000	0.000000	0.207643	0.000077	1.058390	0.000000	0.000000	0.000000	
1.856000	11.663290	89.661804	-5.174168	0.269513	-0.000000	0.264940	0.002203	-1.485239	0.000731	8.574895	686.949158	92.896423	0.182216	0.000060	-0.235400	0.000053	-0.071493	0.000026	-0.000000	-0.000000	0.000000	-0.199669	-0.000131	0.305422	0.000000	0.000000	0.000000	-0.000000	-0.000000	0.000000	0.207643	0.000077	1.058390	0.000000	0.000000	0.000000	
1.857000	11.408808	85.766609	-4.110390	0.267617	-0.000002	0.266773	0.002327	-1.569478	0.000774	9.550814	691.545410	95.108727	0.182278	0.000060	-0.235450	0.000013	-0.014619	0.000005	-0.000000	-0.000000	0.000000	-0.199669	-0.000131	0.305422	0.000000	0.000000	0.000000	-0.000000	-0.000000	0.000000	0.207643	0.000077	1.058390	0.000000	0.000000	0.000000	
1.858000	10.883810	79.037163	-4.811368	0.270028	0.000003	0.269167	0.000903	-0.610306	0.000300	8.393707	693.664856	92.718292	0.181973	0.000060	-0.235964	0.000132	-0.198441	0.000054	-0.000000	-0.000000	0.000000	-0.199669	-0.000131	0.305422	0.000000	0.000000	0.000000	-0.000000	-0.000000	0.000000	0.207643	0.000077	1.058390	0.000000	0.000000	0.000000	
1.859000	10.973341	76.558182	-5.340853	0.268051	-0.000001	0.268048	0.002134	-1.437623	0.000708	9.533930	699.321106	92.888367	0.182262	0.000060	-0.236046	0.000077	-0.112379	0.000037	-0.000000	-0.000000	0.000000	-0.199669	-0.000131	0.305422	0.000000	0.000000	0.000000	-0.000000	-0.000000	0.000000	0.207643	0.000077	1.058390	0.000000	0.000000	0.000000	
1.860000	10.193953	69.829460	-3.831089	0.268781	-0.000000	0.267103	0.001640	-1.104855	0.000544	10.946861	703.564026	94.565971	0.182014	0.000060	-0.236244	0.000045	-0.046570	0.000019	-0.000000	-0.000000	0.000000	-0.199669	-0.000131	0.305422	0.000000	0.000000	0.000000	-0.000000	-0.000000	0.000000	0.207643	0.000077	1.058390	0.000000	0.000000	0.000000	
1.861000	9.754807	63.099880	-5.062772	0.267995	-0.000001	0.267361	0.001026	-0.691952	0.000342	10.060388	708.158325	93.770889	0.182074	0.000060	-0.236598	0.000169	-0.256072	0.000074	-0.000000	-0.000000	0.000000	-0.199669	-0.000131	0.305422	0.000000	0.000000	0.000000	-0.000000	-0.000000	0.000000	0.207643	0.000077	1.058390	0.000000	0.000000	0.000000	
1.862000	9.049617	60.265774	-5.234508	0.265196	-0.000006	0.265652	0.002066	-1.391451	0.000685	10.144595	713.106934	93.680519	0.182142	0.000060	-0.236979	0.000235	-0.336706	0.000083	-0.000000	-0.000000	0.000000	-0.199669	-0.000131	0.305422	0.000000	0.000000	0.000000	-0.000000	-0.000000	0.000000	0.207643	0.000077	1.058390	0.000000	0.000000	0.000000	
1.863000	8.626362	55.308617	-2.843672	0.269505	-0.000001	0.262187	0.001184	-0.797573	0.000393	11.380724	715.935791	95.004425	0.182012	0.000060	-0.237167	0.000164	-0.225967	0.000058	-0.000000	-0.000000	0.000000	-0.199669	-0.000131	0.305422	0.000000	0.000000	0.000000	-0.000000	-0.000000	0.000000	0.207643	0.000077	1.058390	0.000000	0.000000	0.000000	
1.864000	7.483176	51.057632	-2.482196	0.268173	-0.000001	0.266484	0.001132	-0.762419	0.000374	11.288376	720.530701	94.737587	0.182118	0.000060	-0.237815	0.000235	-0.346690	0.000089	-0.000000	-0.000000	0.000000	-0.199669	-0.000131	0.305422	0.000000	0.000000	0.000000	-0.000000	-0.000000	0.000000	0.207643	0.000077	1.058390	0.000000	0.000000	0.000000	
1.865000	6.775645	46.452435	-3.625190	0.267052	-0.000004	0.264667	0.001611	-1.086300	0.000533	11.546482	720.530640	93.671295	0.181926	0.000060	-0.237386	0.000191	-0.288001	0.000073	-0.000000	-0.000000	0.000000	-0.199669	-0.000131	0.305422	0.000000	0.000000	0.000000	-0.000000	-0.000000	0.000000	0.207643	0.000077	1.058390	0.000000	0.000000	0.000000	
1.866000	6.086410	42.911541	-0.880191	0.265785	-0.000005	0.265534	0.000832	-0.560841	0.000276	12.689997	725.480103	94.373985	0.181993	0.000060	-0.237816	0.000242	-0.345915	0.000083	-0.000000	-0.000000	0.000000	-0.199669	-0.000131	0.305422	0.000000	0.000000	0.000000	-0.000000	-0.000000	0.000000	0.207643	0.000077	1.058390	0.000000	0.000000	0.000000	
1.867000	5.123057	38.661083	0.010631	0.272716	0.000005	0.264687	0.001308	-0.881283	0.000434	12.864032	731.842773	94.815254	0.181900	0.000059	-0.238419	0.000181	-0.270733	0.000070	-0.000000	-0.000000	0.000000	-0.199669	-0.000131	0.305422	0.000000	0.000000	0.000000	-0.000000	-0.000000	0.000000	0.207643	0.000077	1.058390	0.000000	0.000000	0.000000	
1.868000	4.413802	35.826584	-0.956483	0.266461	-0.000001	0.271455	0.001378	-0.928402	0.000457	12.150546	734.316162	93.221077	0.181863	0.000059	-0.238388	0.000226	-0.337997	0.000092	-0.000000	-0.000000	0.000000	-0.199669	-0.000131	0.305422	0.000000	0.000000	0.000000	-0.000000	-0.000000	0.000000	0.207643	0.000077	1.058390	0.000000	0.000000	0.000000	
1.869000	4.066848	33.347565	-0.246450	0.270142	0.000004	0.271658	0.000486	-0.327807	0.000162	12.942357	737.851501	93.748474	0.181516	0.000059	-0.238802	0.000215	-0.327106	0.000084	-0.000000	-0.000000	0.000000	-0.199669	-0.000131	0.305422	0.000000	0.000000	0.000000	-0.000000	-0.000000	0.000000	0.207643	0.000077	1.058390	0.000000	0.000000	0.000000	
1.870000	3.199661	29.452156	2.234502	0.259886	-0.000010	0.273418	0.001477	-0.995197	0.000491	14.612666	740.326843	94.005234	0.181669	0.000059	-0.238889	0.000175	-0.253984	0.000066	-0.000000	-0.000000	0.000000	-0.199669	-0.000131	0.305422	0.000000	0.000000	0.000000	-0.000000	-0.000000	0.000000	0.207643	0.000077	1.058390	0.000000	0.000000	0.000000	
1.871000	3.108685	28.035097	1.351898	0.263968	-0.000010	0.260838	0.000913	-0.615173	0.000303	14.339982	743.861084	92.763443	0.181515	0.000059	-0.239239	0.000199	-0.282778	0.000077	-0.000000	-0.000000	0.000000	-0.199669	-0.000131	0.305422	0.000000	0.000000	0.000000	-0.000000	-0.000000	0.000000	0.207643	0.000077	1.058390	0.000000	0.000000	0.000000	
